<svg version="1" xmlns="http://www.w3.org/2000/svg" width="266.667" height="266.667" viewBox="0 0 200.000000 200.000000"><path d="M0 100v100h200V0H0v100zm114.4-87.5c20.7 3.6 36.7 12.3 50.6 27.2 8.4 9 10.2 11.7 15.7 23.3 20.7 43.9.4 98-44.3 118.1-12.2 5.4-21.3 7.3-36.4 7.3-19.8 0-33.5-4.1-49.6-14.7-11.3-7.4-23.7-21.6-30.2-34.3C15 129.1 11 111.8 11 99.2c0-8.1 3.3-24.6 6.6-32.6C28.4 40 54.2 18.4 81.5 13.2c13.3-2.6 21.2-2.7 32.9-.7z"/><path d="M84.4 17c-15 2.7-31.9 11.7-43.1 22.9C23 58.3 15.2 78.1 16.2 104c.4 10.6 1 13.9 3.7 22 10 29.8 35.3 51.8 65.7 57.1 4 .7 11.6 1 18.8.7 10.1-.5 13.7-1.1 21.6-3.7 26.4-8.8 44.8-27.4 54.3-54.6 3.1-8.6 3.2-9.6 3.2-25 0-14-.3-16.9-2.3-23.5-9.1-28.8-30-49.8-58.1-58.2-7.6-2.3-30.1-3.3-38.7-1.8zM56.8 75.3c1.2 1.1 2.2 2.4 2.2 2.8 0 1.3-6.4 2.3-6.8 1-.5-1.6-2.9-1.3-3.6.5-.3.9-.6 3.8-.6 6.5 0 3.6.4 5.1 1.6 5.6 2.4.9 4.3-1.5 2.4-3-.9-.7-1.5-2.1-1.5-3.2 0-1.7.6-2 4.4-1.8 2.4.1 4.5.3 4.6.5.2.2-.1 2.6-.6 5.3-1 5.8-3.7 8.5-8.4 8.5-4.4 0-7.2-2.6-8.6-8-3.4-12.9 6.2-22.4 14.9-14.7zm19.6-.2c2 1.6 2.6 2.9 2.6 6.1 0 2.6-.6 4.5-1.6 5.3-1.5 1.1-1.5 1.6.5 6 1.1 2.6 2.1 4.9 2.1 5 0 .2-1.4.3-3.1.2-3.3-.2-4-.9-6.1-6.2l-1.3-3-.3 4.7c-.3 4.6-.5 4.8-3.3 4.8H63V73h5.4c3.9 0 6 .6 8 2.1zm21.4 9.4c1.3 6.3 2.1 11.9 1.8 12.4-1.1 1.6-5.5.9-6.1-1-.4-1.1-1-1.9-1.5-1.9-2 0-4 1.3-4 2.6 0 .9-1.1 1.4-3 1.4-1.7 0-3-.5-3-1.3 0-.6 1.2-6.3 2.7-12.5L87.4 73h8.1l2.3 11.5zm13.6-5.3c3 7.9 3.5 7.9 2.9.4l-.6-6.6H120v25h-2.9c-2.6 0-3.1-.6-5.2-6.3l-2.4-6.2-.3 6.2c-.3 6.2-.3 6.3-3.2 6.3h-3V72.9l3.2.3c2.8.3 3.3.9 5.2 6zM138 75c2.4 2.4 2.6 7.5.4 8.8-1.5.8-1.4 1.2.6 3.2 1.6 1.6 2 2.8 1.5 4.8-1.1 4.6-3 5.7-9.8 5.7h-6.2l-.3-12.3-.3-12.2h6.1c4.7 0 6.4.4 8 2zm11.6 2l1.2 3.5 1.1-2.8c.6-1.6 1.1-3.3 1.1-3.8s1.5-.9 3.4-.9h3.5l-3 7.1c-2 4.9-2.9 8.9-2.9 12.5 0 5.3 0 5.4-3 5.4s-3-.1-3-5.4c0-3.9-.9-7.3-3-12.1-1.6-3.7-3-6.9-3-7.2 0-.2 1.4-.3 3.2-.1 2.6.2 3.3.9 4.4 3.8zM44 100c0 .5-.5 1-1.1 1-.5 0-.7-.5-.4-1 .3-.6.8-1 1.1-1 .2 0 .4.4.4 1zm18 0c.8.5 1.1 1 .5 1-.5 0-1.7-.5-2.5-1s-1-1-.5-1c.6 0 1.7.5 2.5 1zm19.8-.3c-1 .2-2.6.2-3.5 0-1-.3-.2-.5 1.7-.5s2.7.2 1.8.5zm14.7 1.1c-.3.3-1.1 0-1.8-.7-.9-1-.8-1.1.6-.5 1 .3 1.5.9 1.2 1.2zm49.5-1.4c0 .3-.4.8-1 1.1-.5.3-1 .1-1-.4 0-.6.5-1.1 1-1.1.6 0 1 .2 1 .4zm-102.5 6.8l.8 2.3.4-2.3c.2-1.2 1.1-2.2 1.9-2.2 1 0 1.4 1.4 1.4 5.5 0 4.2-.3 5.5-1.5 5.5-.9 0-1.5-1-1.5-2.6 0-1.4-.4-2.3-1-1.9-.5.3-1 1.5-1 2.6 0 1-.4 1.9-1 1.9-.5 0-1-2.5-1-5.5 0-5.7 1.2-7.2 2.5-3.3zm13.4-.8c1.7 2 1 7.7-1.1 9-2.6 1.6-5.2-.4-5.6-4.3-.4-3.6 1.2-6.1 3.8-6.1 1 0 2.3.6 2.9 1.4zm5.7 2.6c-.1 5.3 1.8 5.6 2.2.2.2-2.3.8-4.2 1.3-4.2.6 0 .9 2.2.7 5.2-.3 5.1-.4 5.3-3.3 5.3s-3-.2-3.3-5.3c-.2-3.9 0-5.2 1.1-5.2.9 0 1.3 1.2 1.3 4zm11.4-3.1c0 .5-.5 1.1-1.2 1.3-.7.3-.5 1.3.7 3.2 1.9 2.8 1.9 2.9-.4 4.7-2.4 2-4.1 1.7-4.1-.6 0-.9.6-1.2 1.5-.9.8.4 1.5.2 1.5-.4 0-.5-.7-1.5-1.5-2.2-1.6-1.3-2-4.2-.8-5.3 1-1 4.3-.8 4.3.2zm8 .1c0 .5-.7 1-1.5 1s-1.5.4-1.5 1c0 .5.5 1 1 1 .6 0 1 .7 1 1.5s-.4 1.5-1 1.5c-.5 0-1 .5-1 1.1 0 .6.7.9 1.5.5.9-.3 1.5 0 1.5.9 0 1-1 1.5-3 1.5-3 0-3-.1-3-5.5s0-5.5 3-5.5c1.7 0 3 .4 3 1zm12.9.4c1.7 2 1 7.7-1.1 9-2.6 1.6-5.2-.4-5.6-4.3-.4-3.6 1.2-6.1 3.8-6.1 1 0 2.3.6 2.9 1.4zm8.1-.5c0 .5-.7 1.2-1.7 1.5-1.4.6-1.4.8.3 2.1 1.7 1.2 1.7 1.4.3 2-1.1.4-1.5 1.4-1.2 2.6.4 1.3 0 1.9-1.1 1.9-1.3 0-1.6-1.1-1.6-5.5 0-5.2.1-5.5 2.5-5.5 1.4 0 2.5.4 2.5.9zm12.8 2.4c.3 2.2-.1 3-1.7 3.4-1.2.3-2.1 1.4-2.1 2.4 0 1.1-.7 1.9-1.5 1.9-1.2 0-1.5-1.3-1.5-5.6v-5.5l3.3.3c2.7.3 3.3.8 3.5 3.1zm8.7 2.4c0 3.6-.4 5.3-1.2 5.3-.7 0-1.3-.7-1.3-1.5s-.5-1.5-1.1-1.5c-.6 0-.9.7-.5 1.5.3.9 0 1.5-.9 1.5-1.1 0-1.5-1.3-1.5-5.6v-5.5l3.3.3c3.2.3 3.2.4 3.2 5.5zm9.3-.5c1.1 6 .9 6.7-1.7 5.1-1.4-.9-2.1-.9-3 0-1.9 1.9-2.4-.1-1.1-5.2.9-3.8 1.7-5.1 3-5.1s2 1.3 2.8 5.2zm4.8-3.7c.6 1.4.8 1.3 1.9-.2 1.9-2.5 3.1-.8 1.7 2.2-.7 1.4-1.2 3.7-1.2 5 0 4.1-2.7 3-3.2-1.3-.3-2-.8-4.5-1.2-5.5-.5-1-.4-1.7.3-1.7s1.4.7 1.7 1.5zm11.4-.6c0 .5-.6 1.2-1.2 1.5-1 .5-1 .7 0 1.2.6.3 1.2 1.2 1.2 2 0 .9-.4 1.2-1 .9-.5-.3-1 .1-1 .9 0 .9.5 1.6 1 1.6.6 0 1 .4 1 1 0 .5-1.1 1-2.5 1-2.4 0-2.5-.3-2.5-5.5s.1-5.5 2.5-5.5c1.4 0 2.5.4 2.5.9zm8.5 3.6c0 2.2.4 4.6.8 5.2.5.9.3 1.3-.7 1.3-.8 0-2-.8-2.5-1.8-1-1.6-1-1.6-1.1 0 0 1-.7 1.8-1.5 1.8-1.2 0-1.5-1.3-1.5-5.6v-5.5l3.3.3c3 .3 3.2.5 3.2 4.3z"/><path d="M69 81.4c0 3.9 1 4.5 3.1 2 .9-1.1 1-2 .3-3.2-2-3-3.4-2.5-3.4 1.2zM90.3 83.8c-.1 1.6-.3 3.5-.5 4.3-.2.8.4 1.4 1.2 1.4.8 0 1.5-.6 1.4-1.3-.1-.6-.2-2.6-.2-4.2-.2-3.8-1.6-3.9-1.9-.2zM130.7 80c-.6 2.2.7 3.5 2.3 2.5 1.5-.9 1.2-4.5-.4-4.5-.7 0-1.6.9-1.9 2zM130.8 89.5c-.3 1.4-.2 2.7.1 3 1.3.8 3.3-1.3 2.9-3-.5-2.9-2.5-2.9-3 0zM53 109.6c0 2.1.4 3.3 1 2.9.6-.3 1-1.9 1-3.6 0-1.6-.4-2.9-1-2.9-.5 0-1 1.6-1 3.6zM91 109.4c0 2 .5 3.6 1 3.6.6 0 1-1.3 1-2.9 0-1.7-.4-3.3-1-3.6-.6-.4-1 .8-1 2.9zM112 107.4c0 .9.5 1.6 1 1.6.6 0 1-.4 1-.9 0-.6-.4-1.3-1-1.6-.5-.3-1 .1-1 .9zM121.1 107.6c0 1.1.3 1.4.6.6.3-.7.2-1.6-.1-1.9-.3-.4-.6.2-.5 1.3zM130 110.1c0 1.1.4 1.8 1 1.4.5-.3.7-1.2.3-2-.7-2.1-1.3-1.9-1.3.6zM155 107.4c0 .9.5 1.6 1 1.6.6 0 1-.4 1-.9 0-.6-.4-1.3-1-1.6-.5-.3-1 .1-1 .9z"/></svg>